<?xml version="1.0" encoding="UTF-8" standalone="no"?> <!-- Created with Vectornator for iOS (http://vectornator.io/) --><!DOCTYPE svg PUBLIC "-//W3C//DTD SVG 1.1//EN" "http://www.w3.org/Graphics/SVG/1.1/DTD/svg11.dtd">
<svg height="100%" style="fill-rule:evenodd;clip-rule:evenodd;stroke-linecap:round;stroke-linejoin:round;" xmlns:xlink="http://www.w3.org/1999/xlink" xmlns="http://www.w3.org/2000/svg" xml:space="preserve" width="100%" version="1.1" viewBox="0 0 400 400">
<defs/>
<g id="Untitled">
<path d="M199.528+15.4556L199.528+15.4556C269.944+15.4556+327.028+72.2386+327.028+142.284L327.028+143.627C327.028+213.672+269.944+270.456+199.528+270.456L199.528+270.456C129.111+270.456+72.0278+213.672+72.0278+143.627L72.0278+142.284C72.0278+72.2386+129.111+15.4556+199.528+15.4556Z" opacity="0.600995" fill="#00A65D"/>
<path d="M264.8+130L264.8+130C335.216+130+392.3+186.783+392.3+256.829L392.3+258.171C392.3+328.217+335.216+385+264.8+385L264.8+385C194.384+385+137.3+328.217+137.3+258.171L137.3+256.829C137.3+186.783+194.384+130+264.8+130Z" opacity="0.600995" fill="#0066b3"/>
<path d="M130.8+130L130.8+130C201.216+130+258.3+186.783+258.3+256.829L258.3+258.171C258.3+328.217+201.216+385+130.8+385L130.8+385C60.3837+385+3.3+328.217+3.3+258.171L3.3+256.829C3.3+186.783+60.3837+130+130.8+130Z" opacity="0.600995" fill="#ed1c24"/>
<path d="M198.5+144.4C213.1+135.8+229.6+129.9+247.4+127.5C277.2+123.5+306.1+130+330.2+144L330.2+144C330.1+191.2+304.3+233.9+264.7+256.7" opacity="0" fill="#f58220"/>
<path d="M134.3+256.3C100.7+236.7+76.2+202.4+70.7+160.9C69.9+154.9+69.5+149+69.5+143.2L69.5+143.2C83.7+135+99.8+129.4+117.1+127.1C146.9+123.1+175.8+129.6+199.9+143.6" opacity="0" fill="#00a65d"/>
<path d="M264.7+256.8C264.6+304+238.8+346.7+199.2+369.5L199.2+369.5C165.6+349.9+141.1+315.6+135.5+274.1C134.7+268.1+134.3+262.2+134.3+256.4" opacity="0" fill="#5c2d91"/>
</g>
</svg>
